/* XPM */
static char *zero[] = {
"10 10 2 1",
"0 c None",
"1 c #FFFFFF",
"0001111100",
"0011000110",
"0110000011",
"0110000011",
"0110000011",
"0110000011",
"0110000011",
"0011000110",
"0001111100",
"0000000000"
};
