/* XPM */
static char *one[] = {
"10 10 2 1",
"0 c None",
"1 c #FFFFFF",
"0000110000",
"0001110000",
"0010110000",
"0000110000",
"0000110000",
"0000110000",
"0000110000",
"0000110000",
"0011111100",
"0000000000"
};

