/* XPM */
static char *two[] = {
"10 10 2 1",
"0 c None",
"1 c #FFFFFF",
"0001111100",
"0010000110",
"0000000110",
"0000001100",
"0000110000",
"0001100000",
"0011000000",
"0110000000",
"0111111110",
"0000000000"
};
