/* XPM */
static char *four[] = {
"10 10 2 1",
"0 c None",
"1 c #FFFFFF",
"0000001100",
"0000011100",
"0000111100",
"0001101100",
"0011001100",
"0111111110",
"0000001100",
"0000001100",
"0000001100",
"0000000000"
};
