/* XPM */
static char *five[] = {
"10 10 2 1",
"0 c None",
"1 c #FFFFFF",
"0011111110",
"0011000000",
"0011000000",
"0011111100",
"0000000110",
"0000000110",
"0000000110",
"0010000110",
"0001111100",
"0000000000"
};
