/* XPM */
static char *six[] = {
"10 10 2 1",
"0 c None",
"1 c #FFFFFF",
"0001111100",
"0011000110",
"0011000000",
"0011111100",
"0011000110",
"0011000110",
"0011000110",
"0011000110",
"0001111100",
"0000000000"
};
