/* XPM */
static char *seven[] = {
"10 10 2 1",
"0 c None",
"1 c #FFFFFF",
"0111111110",
"0000000110",
"0000001100",
"0000011000",
"0000110000",
"0001100000",
"0011000000",
"0011000000",
"0011000000",
"0000000000"
};
