/* XPM */
static char *colon[] = {
"10 10 2 1",
"0 c None",
"1 c #FFFFFF",
"0000000000",
"0000000000",
"0000110000",
"0000110000",
"0000000000",
"0000110000",
"0000110000",
"0000000000",
"0000000000",
"0000000000"
};
