/* XPM */
static char *f_letter[] = {
"10 10 2 1",
"0 c None",
"1 c #FFFFFF",
"0111111110",
"0110000000",
"0110000000",
"0111111000",
"0110000000",
"0110000000",
"0110000000",
"0110000000",
"0110000000",
"0000000000"
};
