/* XPM */
static char *p_letter[] = {
"10 10 2 1",
"0 c None",
"1 c #FFFFFF",
"0111111100",
"0110000110",
"0110000110",
"0111111100",
"0110000000",
"0110000000",
"0110000000",
"0110000000",
"0110000000",
"0000000000"
};
