/* XPM */
static char *s_letter[] = {
"10 10 2 1",
"0 c None",
"1 c #FFFFFF",
"0001111110",
"0011000000",
"0011000000",
"0001111100",
"0000000110",
"0000000110",
"0011000110",
"0001111100",
"0000000000",
"0000000000"
};
